<svg xmlns="http://www.w3.org/2000/svg" width="1440" height="1080" viewBox="0 0 1440 1080" role="img" aria-label="De autonome ontwikkelloop"><rect width="1440" height="1080" fill="#fff"/><text x="720" y="62" text-anchor="middle" font-family="Inter,Arial,sans-serif" font-size="55" font-weight="850" fill="#08285a"><tspan x="720" dy="0">De autonome ontwikkelloop</tspan></text><text x="720" y="105" text-anchor="middle" font-family="Inter,Arial,sans-serif" font-size="25" font-weight="400" fill="#526b8a"><tspan x="720" dy="0">Wat er in elke cyclus werkelijk gebeurt</tspan></text><rect x="42" y="145" width="205" height="250" rx="18" fill="#eaf5ff" stroke="#1683e8" stroke-width="2"/><circle cx="72" cy="175" r="18" fill="#1683e8"/><text x="72" y="182" text-anchor="middle" font-family="Inter,Arial,sans-serif" font-size="18" font-weight="800" fill="#fff"><tspan x="72" dy="0">1</tspan></text><text x="144.5" y="237" text-anchor="middle" font-family="Inter,Arial,sans-serif" font-size="22" font-weight="800" fill="#08285a"><tspan x="144.5" dy="0">Globale opdracht</tspan><tspan x="144.5" dy="25">in ChatGPT</tspan></text><text x="144.5" y="309" text-anchor="middle" font-family="Inter,Arial,sans-serif" font-size="16" font-weight="450" fill="#526b8a"><tspan x="144.5" dy="0">hoge-niveau opdracht</tspan></text><line x1="251" y1="270" x2="259" y2="270" stroke="#1683e8" stroke-width="3"/><polygon points="259,270 249,264 249,276" fill="#1683e8"/><rect x="265" y="145" width="205" height="250" rx="18" fill="#eaf5ff" stroke="#1683e8" stroke-width="2"/><circle cx="295" cy="175" r="18" fill="#1683e8"/><text x="295" y="182" text-anchor="middle" font-family="Inter,Arial,sans-serif" font-size="18" font-weight="800" fill="#fff"><tspan x="295" dy="0">2</tspan></text><text x="367.5" y="237" text-anchor="middle" font-family="Inter,Arial,sans-serif" font-size="22" font-weight="800" fill="#08285a"><tspan x="367.5" dy="0">PLANNING</tspan><tspan x="367.5" dy="25">Brain</tspan></text><text x="367.5" y="309" text-anchor="middle" font-family="Inter,Arial,sans-serif" font-size="16" font-weight="450" fill="#526b8a"><tspan x="367.5" dy="0">één begrensde batch</tspan></text><line x1="474" y1="270" x2="482" y2="270" stroke="#1683e8" stroke-width="3"/><polygon points="482,270 472,264 472,276" fill="#1683e8"/><rect x="488" y="145" width="205" height="250" rx="18" fill="#eaf5ff" stroke="#1683e8" stroke-width="2"/><circle cx="518" cy="175" r="18" fill="#1683e8"/><text x="518" y="182" text-anchor="middle" font-family="Inter,Arial,sans-serif" font-size="18" font-weight="800" fill="#fff"><tspan x="518" dy="0">3</tspan></text><text x="590.5" y="237" text-anchor="middle" font-family="Inter,Arial,sans-serif" font-size="22" font-weight="800" fill="#08285a"><tspan x="590.5" dy="0">WORKING</tspan><tspan x="590.5" dy="25">Worker</tspan></text><text x="590.5" y="309" text-anchor="middle" font-family="Inter,Arial,sans-serif" font-size="16" font-weight="450" fill="#526b8a"><tspan x="590.5" dy="0">één batch uitvoeren</tspan></text><line x1="697" y1="270" x2="705" y2="270" stroke="#1683e8" stroke-width="3"/><polygon points="705,270 695,264 695,276" fill="#1683e8"/><rect x="711" y="145" width="205" height="250" rx="18" fill="#eaf5ff" stroke="#1683e8" stroke-width="2"/><circle cx="741" cy="175" r="18" fill="#1683e8"/><text x="741" y="182" text-anchor="middle" font-family="Inter,Arial,sans-serif" font-size="18" font-weight="800" fill="#fff"><tspan x="741" dy="0">4</tspan></text><text x="813.5" y="237" text-anchor="middle" font-family="Inter,Arial,sans-serif" font-size="22" font-weight="800" fill="#08285a"><tspan x="813.5" dy="0">EVIDENCE</tspan><tspan x="813.5" dy="25">Orchestrator</tspan></text><text x="813.5" y="309" text-anchor="middle" font-family="Inter,Arial,sans-serif" font-size="16" font-weight="450" fill="#526b8a"><tspan x="813.5" dy="0">diff · files · tests · scope</tspan></text><line x1="920" y1="270" x2="928" y2="270" stroke="#1683e8" stroke-width="3"/><polygon points="928,270 918,264 918,276" fill="#1683e8"/><rect x="934" y="145" width="205" height="250" rx="18" fill="#eaf5ff" stroke="#1683e8" stroke-width="2"/><circle cx="964" cy="175" r="18" fill="#1683e8"/><text x="964" y="182" text-anchor="middle" font-family="Inter,Arial,sans-serif" font-size="18" font-weight="800" fill="#fff"><tspan x="964" dy="0">5</tspan></text><text x="1036.5" y="237" text-anchor="middle" font-family="Inter,Arial,sans-serif" font-size="22" font-weight="800" fill="#08285a"><tspan x="1036.5" dy="0">REVIEWING</tspan><tspan x="1036.5" dy="25">Reviewer</tspan></text><text x="1036.5" y="309" text-anchor="middle" font-family="Inter,Arial,sans-serif" font-size="16" font-weight="450" fill="#526b8a"><tspan x="1036.5" dy="0">echte diff + criteria</tspan></text><line x1="1143" y1="270" x2="1151" y2="270" stroke="#1683e8" stroke-width="3"/><polygon points="1151,270 1141,264 1141,276" fill="#1683e8"/><rect x="1157" y="145" width="205" height="250" rx="18" fill="#eaf5ff" stroke="#1683e8" stroke-width="2"/><circle cx="1187" cy="175" r="18" fill="#1683e8"/><text x="1187" y="182" text-anchor="middle" font-family="Inter,Arial,sans-serif" font-size="18" font-weight="800" fill="#fff"><tspan x="1187" dy="0">6</tspan></text><text x="1259.5" y="237" text-anchor="middle" font-family="Inter,Arial,sans-serif" font-size="22" font-weight="800" fill="#08285a"><tspan x="1259.5" dy="0">COMMITTING</tspan><tspan x="1259.5" dy="25">Orchestrator</tspan></text><text x="1259.5" y="309" text-anchor="middle" font-family="Inter,Arial,sans-serif" font-size="16" font-weight="450" fill="#526b8a"><tspan x="1259.5" dy="0">alleen na PASS</tspan></text><text x="390" y="448" text-anchor="middle" font-family="Inter,Arial,sans-serif" font-size="23" font-weight="800" fill="#08285a"><tspan x="390" dy="0">Reviewer-uitkomsten</tspan></text><rect x="80" y="475" width="220" height="80" rx="16" fill="#eaf9f1" stroke="#159b5b" stroke-width="2"/><text x="190" y="510" text-anchor="middle" font-family="Inter,Arial,sans-serif" font-size="21" font-weight="850" fill="#159b5b"><tspan x="190" dy="0">PASS</tspan></text><text x="190" y="538" text-anchor="middle" font-family="Inter,Arial,sans-serif" font-size="15" font-weight="500" fill="#526b8a"><tspan x="190" dy="0">commit → PLANNING</tspan></text><rect x="325" y="475" width="220" height="80" rx="16" fill="#fff0f0" stroke="#e44444" stroke-width="2"/><text x="435" y="510" text-anchor="middle" font-family="Inter,Arial,sans-serif" font-size="21" font-weight="850" fill="#e44444"><tspan x="435" dy="0">FAIL</tspan></text><text x="435" y="538" text-anchor="middle" font-family="Inter,Arial,sans-serif" font-size="15" font-weight="500" fill="#526b8a"><tspan x="435" dy="0">repair → PLANNING</tspan></text><rect x="570" y="475" width="220" height="80" rx="16" fill="#fff3e9" stroke="#f57c16" stroke-width="2"/><text x="680" y="510" text-anchor="middle" font-family="Inter,Arial,sans-serif" font-size="21" font-weight="850" fill="#f57c16"><tspan x="680" dy="0">NEEDS_HUMAN</tspan></text><text x="680" y="538" text-anchor="middle" font-family="Inter,Arial,sans-serif" font-size="15" font-weight="500" fill="#526b8a"><tspan x="680" dy="0">pauze voor mens</tspan></text><path d="M 190 555 L 190 620 L 1160 620 L 1160 395" fill="none" stroke="#159b5b" stroke-width="4" stroke-linecap="round" stroke-linejoin="round"/><path d="M 435 555 L 435 650 L 145 650 L 145 395" fill="none" stroke="#e44444" stroke-width="4" stroke-linecap="round" stroke-linejoin="round"/><path d="M 680 555 L 680 682 L 900 682" fill="none" stroke="#f57c16" stroke-width="4" stroke-linecap="round" stroke-linejoin="round"/><text x="1100" y="448" text-anchor="middle" font-family="Inter,Arial,sans-serif" font-size="23" font-weight="800" fill="#08285a"><tspan x="1100" dy="0">State-machine uitkomsten</tspan></text><rect x="950" y="475" width="300" height="62" rx="14" fill="#eaf5ff" stroke="#1683e8" stroke-width="2"/><text x="1100" y="502" text-anchor="middle" font-family="Inter,Arial,sans-serif" font-size="19" font-weight="800" fill="#1683e8"><tspan x="1100" dy="0">WAITING</tspan></text><text x="1100" y="524" text-anchor="middle" font-family="Inter,Arial,sans-serif" font-size="14" font-weight="450" fill="#526b8a"><tspan x="1100" dy="0">wacht en hervat</tspan></text><rect x="950" y="550" width="300" height="62" rx="14" fill="#f1edff" stroke="#6649d8" stroke-width="2"/><text x="1100" y="577" text-anchor="middle" font-family="Inter,Arial,sans-serif" font-size="19" font-weight="800" fill="#6649d8"><tspan x="1100" dy="0">DONE</tspan></text><text x="1100" y="599" text-anchor="middle" font-family="Inter,Arial,sans-serif" font-size="14" font-weight="450" fill="#526b8a"><tspan x="1100" dy="0">terminale successtaat</tspan></text><rect x="950" y="625" width="300" height="62" rx="14" fill="#f3f6f9" stroke="#5f7087" stroke-width="2"/><text x="1100" y="652" text-anchor="middle" font-family="Inter,Arial,sans-serif" font-size="19" font-weight="800" fill="#5f7087"><tspan x="1100" dy="0">ERROR</tspan></text><text x="1100" y="674" text-anchor="middle" font-family="Inter,Arial,sans-serif" font-size="14" font-weight="450" fill="#526b8a"><tspan x="1100" dy="0">terminale foutstaat</tspan></text><rect x="45" y="760" width="620" height="230" rx="20" fill="#fff3e9" stroke="#f57c16" stroke-width="2"/><text x="150" y="805" text-anchor="start" font-family="Inter,Arial,sans-serif" font-size="26" font-weight="850" fill="#f57c16"><tspan x="150" dy="0">Deterministisch</tspan></text><circle cx="100" cy="845" r="5" fill="#f57c16"/><text x="118" y="851" text-anchor="start" font-family="Inter,Arial,sans-serif" font-size="18" font-weight="450" fill="#526b8a"><tspan x="118" dy="0">workflow / fases</tspan></text><circle cx="100" cy="876" r="5" fill="#f57c16"/><text x="118" y="882" text-anchor="start" font-family="Inter,Arial,sans-serif" font-size="18" font-weight="450" fill="#526b8a"><tspan x="118" dy="0">locks</tspan></text><circle cx="100" cy="907" r="5" fill="#f57c16"/><text x="118" y="913" text-anchor="start" font-family="Inter,Arial,sans-serif" font-size="18" font-weight="450" fill="#526b8a"><tspan x="118" dy="0">Git-gates</tspan></text><circle cx="100" cy="938" r="5" fill="#f57c16"/><text x="118" y="944" text-anchor="start" font-family="Inter,Arial,sans-serif" font-size="18" font-weight="450" fill="#526b8a"><tspan x="118" dy="0">tests</tspan></text><circle cx="365" cy="845" r="5" fill="#f57c16"/><text x="383" y="851" text-anchor="start" font-family="Inter,Arial,sans-serif" font-size="18" font-weight="450" fill="#526b8a"><tspan x="383" dy="0">retries</tspan></text><circle cx="365" cy="876" r="5" fill="#f57c16"/><text x="383" y="882" text-anchor="start" font-family="Inter,Arial,sans-serif" font-size="18" font-weight="450" fill="#526b8a"><tspan x="383" dy="0">caps</tspan></text><circle cx="365" cy="907" r="5" fill="#f57c16"/><text x="383" y="913" text-anchor="start" font-family="Inter,Arial,sans-serif" font-size="18" font-weight="450" fill="#526b8a"><tspan x="383" dy="0">state transitions</tspan></text><circle cx="365" cy="938" r="5" fill="#f57c16"/><text x="383" y="944" text-anchor="start" font-family="Inter,Arial,sans-serif" font-size="18" font-weight="450" fill="#526b8a"><tspan x="383" dy="0">commits</tspan></text><rect x="690" y="760" width="410" height="230" rx="20" fill="#eaf5ff" stroke="#1683e8" stroke-width="2"/><text x="765" y="805" text-anchor="start" font-family="Inter,Arial,sans-serif" font-size="30" font-weight="850" fill="#1683e8"><tspan x="765" dy="0">AI</tspan></text><circle cx="745" cy="845" r="5" fill="#1683e8"/><text x="763" y="851" text-anchor="start" font-family="Inter,Arial,sans-serif" font-size="18" font-weight="450" fill="#526b8a"><tspan x="763" dy="0">planning</tspan></text><circle cx="745" cy="876" r="5" fill="#1683e8"/><text x="763" y="882" text-anchor="start" font-family="Inter,Arial,sans-serif" font-size="18" font-weight="450" fill="#526b8a"><tspan x="763" dy="0">code schrijven</tspan></text><circle cx="745" cy="907" r="5" fill="#1683e8"/><text x="763" y="913" text-anchor="start" font-family="Inter,Arial,sans-serif" font-size="18" font-weight="450" fill="#526b8a"><tspan x="763" dy="0">reviewen</tspan></text><circle cx="745" cy="938" r="5" fill="#1683e8"/><text x="763" y="944" text-anchor="start" font-family="Inter,Arial,sans-serif" font-size="18" font-weight="450" fill="#526b8a"><tspan x="763" dy="0">redeneren over fouten</tspan></text><rect x="1125" y="760" width="270" height="230" rx="20" fill="#f3f6f9" stroke="#b9c5d2" stroke-width="2"/><text x="1260" y="807" text-anchor="middle" font-family="Inter,Arial,sans-serif" font-size="20" font-weight="850" fill="#08285a"><tspan x="1260" dy="0">Huidige implementatie</tspan></text><text x="1260" y="850" text-anchor="middle" font-family="Inter,Arial,sans-serif" font-size="16" font-weight="500" fill="#526b8a"><tspan x="1260" dy="0">Brain + Reviewer:</tspan><tspan x="1260" dy="22">Claude</tspan><tspan x="1260" dy="22"></tspan><tspan x="1260" dy="22">Worker:</tspan><tspan x="1260" dy="22">auto / Claude /</tspan><tspan x="1260" dy="22">Gemini / Codex</tspan></text></svg>