<svg xmlns="http://www.w3.org/2000/svg" viewBox="0 0 1600 900"><defs><linearGradient id="bg" x2="1" y2="1"><stop stop-color="#061c35"/><stop offset="1" stop-color="#073050"/></linearGradient><style>.t{font-family:Arial,sans-serif;fill:#f6fbff}.m{font-family:Arial,sans-serif;fill:#c5d9eb}.h{font-weight:700}.s{font-size:18px}</style></defs><rect width="1600" height="900" rx="28" fill="url(#bg)" stroke="#1676ad" stroke-width="2"/><text x="55" y="75" class="t h" font-size="46">De beslis- en herstelcyclus</text><text x="55" y="115" class="m" font-size="23">Wat de orchestrator doet na review, fout of wachttijd.</text><rect x="590" y="165" width="420" height="125" rx="22" fill="#171d55" stroke="#a87cff" stroke-width="3"/><text x="800" y="215" text-anchor="middle" class="t h" font-size="27">Reviewer</text><text x="800" y="250" text-anchor="middle" class="m" font-size="19">controleert resultaat · diff · tests · criteria</text><path d="M800 290v55M205 345h1190M205 345v45M600 345v45M1000 345v45M1395 345v45" fill="none" stroke="#55bfff" stroke-width="5"/>
<rect x="70" y="390" width="280" height="310" rx="22" fill="#0b3153" stroke="#24d5a8" stroke-width="3"/><text x="210" y="445" text-anchor="middle" class="t h" font-size="27">PASS</text><text x="210" y="480" text-anchor="middle" fill="#24d5a8" font-family="Arial" font-weight="700" font-size="19">Goedkeuren en door</text><text x="98" y="535" class="m s">• Commit resultaat</text><text x="98" y="572" class="m s">• Update state</text><text x="98" y="609" class="m s">• Ga naar volgende batch</text><rect x="465" y="390" width="280" height="310" rx="22" fill="#0b3153" stroke="#ff5f72" stroke-width="3"/><text x="605" y="445" text-anchor="middle" class="t h" font-size="27">FAIL</text><text x="605" y="480" text-anchor="middle" fill="#ff5f72" font-family="Arial" font-weight="700" font-size="19">Repareren via Brain</text><text x="493" y="535" class="m s">• Analyseer fout</text><text x="493" y="572" class="m s">• Brain bepaalt fix</text><text x="493" y="609" class="m s">• Nieuwe poging</text><rect x="860" y="390" width="280" height="310" rx="22" fill="#0b3153" stroke="#ffad32" stroke-width="3"/><text x="1000" y="445" text-anchor="middle" class="t h" font-size="27">NEEDS_HUMAN</text><text x="1000" y="480" text-anchor="middle" fill="#ffad32" font-family="Arial" font-weight="700" font-size="19">Pauze voor mens</text><text x="888" y="535" class="m s">• Markeer in dashboard</text><text x="888" y="572" class="m s">• Voorzie context</text><text x="888" y="609" class="m s">• Wacht op beslissing</text><text x="888" y="646" class="m s">• Hervat daarna</text><rect x="1255" y="390" width="280" height="310" rx="22" fill="#0b3153" stroke="#35aaff" stroke-width="3"/><text x="1395" y="445" text-anchor="middle" class="t h" font-size="27">WAITING</text><text x="1395" y="480" text-anchor="middle" fill="#35aaff" font-family="Arial" font-weight="700" font-size="19">Wachten en hervatten</text><text x="1283" y="535" class="m s">• Tijdelijk pauzeren</text><text x="1283" y="572" class="m s">• Volgens planning/trigger</text><text x="1283" y="609" class="m s">• Automatisch hervatten</text><text x="1283" y="646" class="m s">• Geen actie nodig</text>
<path d="M210 700v60h455M605 700v60h60M1000 700v60h-65M1395 700v60H935" fill="none" stroke="#64bfff" stroke-width="4"/><rect x="665" y="725" width="270" height="75" rx="18" fill="#20175d" stroke="#a87cff" stroke-width="3"/><text x="800" y="760" text-anchor="middle" class="t h" font-size="26">DONE</text><text x="800" y="787" text-anchor="middle" class="m s">Taak succesvol afgerond</text><rect x="55" y="830" width="1490" height="45" rx="15" fill="#0b3559"/><text x="100" y="860" class="t h" font-size="18">⚙ Deterministische sturing</text><text x="480" y="860" class="t h" font-size="18">▥ Transparant en meetbaar</text><text x="875" y="860" class="t h" font-size="18">Veilig en controleerbaar</text><text x="1240" y="860" class="t h" font-size="18">↻ Gaat door tot het klaar is</text></svg>